Coordinates
version=1
nRows=60
nColumns=12
inDegrees=yes

Units are S.I. units (second, meters, Newtons, ...)
Angles are in degrees

endheader
time	SC_y	SC_z	SC_x	AC_y	AC_z	AC_x	GH_y	GH_z	GH_yy	EL_x	PS_y
       0.0              -57.06          28.05          45.12          35.26         -8.517          5.833          9.459          2.763         -107.9          69.82          18.15
   0.03526              -57.06          28.05          45.13          35.26         -8.515          5.832          9.453          2.771         -107.9          69.83          18.17
   0.07052              -57.06          28.04          45.14          35.26         -8.512          5.831          9.446           2.78         -107.9          69.83          18.19
    0.1058              -57.05          28.04          45.14          35.27         -8.509           5.83           9.44           2.79         -107.9          69.84          18.21
     0.141              -57.05          28.04          45.15          35.27         -8.505          5.828          9.432            2.8         -107.9          69.85          18.23
    0.1763              -57.05          28.04          45.15          35.27         -8.502          5.827          9.424          2.811         -107.9          69.85          18.26
    0.2116              -57.04          28.04          45.16          35.27         -8.498          5.826          9.416          2.822         -107.9          69.86          18.28
    0.2468              -57.04          28.03          45.17          35.28         -8.494          5.824          9.407          2.834         -107.9          69.87          18.31
    0.2821              -57.04          28.03          45.18          35.28          -8.49          5.823          9.398          2.848         -107.9          69.87          18.34
    0.3173              -57.03          28.03          45.19          35.28         -8.486          5.821          9.387          2.862         -107.9          69.88          18.37
    0.3526              -57.03          28.02           45.2          35.29         -8.481          5.819          9.376          2.877         -107.9          69.89          18.41
    0.3879              -57.02          28.02          45.21          35.29         -8.476          5.817          9.365          2.893         -107.9           69.9          18.44
    0.4231              -57.02          28.02          45.22          35.29          -8.47          5.815          9.352          2.911         -107.9          69.91          18.48
    0.4584              -57.01          28.01          45.23           35.3         -8.464          5.813          9.338           2.93         -107.9          69.92          18.52
    0.4936              -57.01          28.01          45.24           35.3         -8.458          5.811          9.323           2.95         -107.9          69.94          18.57
    0.5289               -57.0           28.0          45.26          35.31          -8.45          5.808          9.307          2.973         -107.9          69.95          18.62
    0.5641              -56.99           28.0          45.27          35.31         -8.443          5.805           9.29          2.997         -107.9          69.97          18.67
    0.5994              -56.99          27.99          45.29          35.32         -8.434          5.802           9.27          3.023         -107.9          69.98          18.73
    0.6347              -56.98          27.99          45.31          35.33         -8.425          5.799           9.25          3.052         -107.9           70.0           18.8
    0.6699              -56.97          27.98          45.33          35.33         -8.415          5.795          9.227          3.084         -107.9          70.02          18.87
    0.7052              -56.96          27.97          45.35          35.34         -8.404          5.791          9.202          3.118         -107.9          70.04          18.95
    0.7404              -56.95          27.97          45.37          35.35         -8.392          5.786          9.174          3.157         -107.9          70.06          19.03
    0.7757              -56.94          27.96           45.4          35.36         -8.378          5.781          9.143          3.199         -107.9          70.09          19.13
     0.811              -56.92          27.95          45.43          35.37         -8.364          5.776           9.11          3.245         -108.0          70.12          19.23
    0.8462              -56.91          27.94          45.46          35.38         -8.347           5.77          9.072          3.297         -108.0          70.15          19.35
    0.8815              -56.89          27.93           45.5           35.4         -8.329          5.763           9.03          3.355         -108.0          70.18          19.47
    0.9167              -56.87          27.91          45.54          35.41         -8.308          5.755          8.983           3.42         -108.0          70.22          19.62
     0.952              -56.85           27.9          45.59          35.43         -8.285          5.746           8.93          3.493         -108.0          70.27          19.78
    0.9873              -56.83          27.88          45.64          35.45         -8.258          5.737           8.87          3.575         -108.0          70.32          19.97
     1.023               -56.8          27.86           45.7          35.47         -8.229          5.726          8.803          3.669         -108.0          70.37          20.18
     1.058              -56.77          27.84          45.77           35.5         -8.195          5.713          8.725          3.776         -108.1          70.44          20.41
     1.093              -56.73          27.81          45.84          35.52         -8.156          5.698          8.636          3.899         -108.1          70.51          20.69
     1.128              -56.69          27.78          45.93          35.56          -8.11          5.682          8.534           4.04         -108.1           70.6          21.01
     1.164              -56.65          27.75          46.04           35.6         -8.058          5.662          8.415          4.205         -108.1           70.7          21.37
     1.199              -56.59          27.71          46.16          35.64         -7.997           5.64          8.275          4.397         -108.2          70.82           21.8
     1.234              -56.53          27.66          46.31          35.69         -7.924          5.613          8.111          4.624         -108.2          70.96          22.31
     1.269              -56.45           27.6          46.48          35.76         -7.839          5.581          7.916          4.894         -108.3          71.12          22.91
     1.305              -56.36          27.54          46.68          35.83         -7.736          5.543          7.682          5.217         -108.3          71.32          23.63
      1.34              -56.25          27.46          46.93          35.92         -7.611          5.496          7.398          5.608         -108.4          71.55          24.51
     1.375              -56.11          27.36          47.23          36.03         -7.459           5.44          7.052          6.086         -108.5          71.85          25.57
      1.41              -55.94          27.23          47.61          36.17         -7.271           5.37          6.625          6.675         -108.6           72.2          26.89
     1.446              -55.73          27.08          48.07          36.34         -7.037          5.283          6.093          7.411         -108.8          72.65          28.53
     1.481              -55.46          26.89          48.66          36.56         -6.742          5.174          5.422          8.337         -109.0          73.21           30.6
     1.516              -55.13          26.64          49.41          36.83         -6.367          5.035          4.569          9.514         -109.2          73.93          33.23
     1.551              -54.69          26.33          50.37          37.18         -5.887          4.856          3.477          11.02         -109.5          74.85           36.6
     1.587              -54.14          25.93          51.59          37.63         -5.271          4.628          2.077          12.96         -109.9          76.02          40.92
     1.622              -53.43          25.41          53.16          38.21         -4.484          4.336         0.2875          15.43         -110.4          77.53          46.44
     1.657              -52.54          24.76          55.13          38.93         -3.495          3.969         -1.962          18.53         -111.0          79.42          53.38
     1.692              -51.46          23.98          57.54          39.82         -2.289          3.521         -4.704          22.32         -111.8          81.72          61.83
     1.728               -50.2          23.06          60.32          40.84        -0.8919          3.002         -7.882           26.7         -112.6          84.39          71.63
     1.763              -48.84          22.07          63.34          41.95         0.6213          2.441         -11.32          31.46         -113.6          87.28          82.24
     1.798              -47.48          21.08          66.35          43.05          2.134          1.879         -14.76          36.21         -114.5          90.17          92.85
     1.833              -46.22          20.17          69.14          44.07          3.532          1.361         -17.94          40.59         -115.4          92.84          102.7
     1.869              -45.14          19.38          71.54          44.96          4.737         0.9131         -20.68          44.38         -116.2          95.14          111.1
     1.904              -44.25          18.73          73.51          45.68          5.727         0.5459         -22.93          47.48         -116.8          97.03          118.0
     1.939              -43.54          18.22          75.08          46.26          6.514         0.2538         -24.72          49.96         -117.3          98.53          123.6
     1.975              -42.99          17.82          76.31          46.71           7.13        0.02521         -26.12          51.89         -117.7          99.71          127.9
      2.01              -42.55           17.5          77.26          47.06           7.61        -0.1529         -27.21           53.4         -118.0          100.6          131.3
     2.045              -42.22          17.26          78.01          47.33          7.985        -0.2921         -28.07          54.57         -118.2          101.3          133.9
      2.08              -41.95          17.07           78.6          47.55          8.279        -0.4016         -28.74           55.5         -118.4          101.9          136.0
